<svg width="18" height="16" viewBox="0 0 18 16" xmlns="http://www.w3.org/2000/svg">
<path d="M13.1324 0C12.162 0 11.2723 0.307493 10.4882 0.913956C9.73638 1.49538 9.23585 2.23592 8.94118 2.77442C8.6465 2.23589 8.14597 1.49538 7.39418 0.913956C6.61001 0.307493 5.72036 0 4.75 0C2.04208 0 0 2.21493 0 5.15214C0 8.32535 2.54764 10.4964 6.40443 13.7831C7.05937 14.3413 7.80174 14.9739 8.57333 15.6487C8.67504 15.7377 8.80566 15.7868 8.94118 15.7868C9.07669 15.7868 9.20732 15.7377 9.30902 15.6487C10.0807 14.9739 10.823 14.3412 11.4783 13.7828C15.3347 10.4964 17.8824 8.32535 17.8824 5.15214C17.8824 2.21493 15.8403 0 13.1324 0Z" />
</svg>
