<svg width="22" height="22" viewBox="0 0 22 22" xmlns="http://www.w3.org/2000/svg">
<path fill-rule="evenodd" clip-rule="evenodd" d="M21.5973 18.7817C21.4512 18.9168 21.275 19.0896 21.0882 19.2723C20.6221 19.7311 20.0399 20.3015 19.6749 20.5329C17.7547 21.75 15.1858 21.1676 13.3687 20.4653C10.9716 19.5389 8.36187 17.8312 6.01859 15.6573C3.67312 13.4832 1.83234 11.0616 0.833575 8.8394C0.0773594 7.15349 -0.551803 4.7701 0.760531 2.98854C1.00974 2.64976 1.6261 2.11047 2.12013 1.67728C2.31778 1.50454 2.50253 1.34133 2.64862 1.20626C2.90798 0.966874 3.25897 0.832489 3.62485 0.832489C3.99072 0.832489 4.34172 0.966874 4.60107 1.20626L8.13415 4.48258C8.39207 4.72315 8.53686 5.04864 8.53686 5.38793C8.53686 5.72721 8.39207 6.05271 8.13415 6.29328L7.17169 7.18426C6.85026 7.48023 6.64046 7.86457 6.5735 8.28007C6.50654 8.69557 6.58601 9.12002 6.80007 9.49024C8.12387 11.8079 10.1676 13.7033 12.6663 14.9309C13.0654 15.1294 13.5229 15.203 13.9707 15.1408C14.4185 15.0786 14.8326 14.8838 15.1514 14.5856L16.1115 13.6946C16.3709 13.4552 16.7219 13.3208 17.0878 13.3208C17.4536 13.3208 17.8046 13.4552 18.064 13.6946L21.5973 16.9715C21.8552 17.2119 22 17.5374 22 17.8766C22 18.2158 21.8552 18.5413 21.5973 18.7817Z" />
</svg>
