<svg width="18" height="18" viewBox="0 0 18 18" fill="none" xmlns="http://www.w3.org/2000/svg">
<path d="M17.979 16.8546L14.8123 13.6879C16.092 12.1108 16.7166 10.1022 16.5569 8.07746C16.3972 6.05277 15.4655 4.16689 13.9544 2.80984C12.4434 1.45279 10.4686 0.728385 8.43841 0.786442C6.40826 0.844498 4.47808 1.68058 3.04704 3.12176C1.61601 4.56294 0.793591 6.49899 0.749882 8.5295C0.706174 10.56 1.44452 12.5297 2.81221 14.0311C4.1799 15.5325 6.07232 16.4509 8.09809 16.5962C10.1239 16.7416 12.128 16.1028 13.6961 14.8121L16.8232 17.9787L17.979 16.8546ZM8.70857 15.0417C7.45596 15.0417 6.23147 14.6702 5.18996 13.9743C4.14845 13.2784 3.33669 12.2893 2.85734 11.132C2.37798 9.97472 2.25256 8.7013 2.49693 7.47276C2.74131 6.24421 3.3445 5.11572 4.23023 4.22998C5.11596 3.34425 6.24446 2.74106 7.473 2.49669C8.70155 2.25231 9.97497 2.37774 11.1322 2.85709C12.2895 3.33645 13.2786 4.14821 13.9745 5.18972C14.6705 6.23123 15.0419 7.45571 15.0419 8.70833C15.0419 10.388 14.3746 11.9989 13.1869 13.1867C11.9992 14.3744 10.3883 15.0417 8.70857 15.0417Z" fill="#A4A4A4"/>
</svg>
